<?xml version="1.0" standalone="no"?>
<!DOCTYPE svg PUBLIC "-//W3C//DTD SVG 1.1//EN" "http://www.w3.org/Graphics/SVG/1.1/DTD/svg11.dtd" >
<!--
2013-9-30: Created.
-->
<svg>
<metadata>
Created by iconfont
</metadata>
<defs>

<font id="font_family" horiz-adv-x="1024" >
  <font-face
    font-family="font_family"
    font-weight="500"
    font-stretch="normal"
    units-per-em="1024"
    ascent="896"
    descent="-128"
  />
    <missing-glyph />
    
    <glyph glyph-name="44442x" unicode="&#58930;" d="M978.368 677.728a29.072 29.072 0 0 0 41.024 5.36c99.52-77.6 156.608-187.728 156.608-302.144 0-99.76-42.448-195.936-120.576-270.32-8.208-13.584-9.632-93.312-1.44-169.488l6.432-61.136-51.36 33.6c-58.88 38.272-134.144 79.744-154.848 81.184-77.408-23.6-162.672-29.68-244.368-17.888a29.648 29.648 0 0 0-24.608 33.264c0.704 4.64 2.848 8.928 5.344 12.512 247.232 42.192 434.16 227.408 434.16 449.088 0 69.376-18.896 135.168-51.728 194.16 1.072 4.288 2.496 8.224 5.36 11.808zM486.464 888c263.92 0 478.448-183.36 478.448-408.832 0-225.44-214.528-408.464-478.448-408.816-55.04 0-109.04 7.84-160.544 23.536-20.48-1.424-94.928-42.448-153.136-80.96L121.968-20.64l6.352 61.008c8.112 76 7.056 155.536-2.464 170.16C50.336 284.032 8 379.648 8 479.2 8 704.608 222.528 888 486.464 888zM256.4 541.6c-30.336-0.352-54.688-25.328-54.688-56 0.352-30.688 25.056-55.296 55.392-55.296 30.352 0 55.04 24.96 54.704 56-0.368 30.688-25.056 55.296-55.408 55.296z m230.768 0c-30.352-0.352-54.688-25.328-54.688-56 0.352-30.688 25.04-55.296 55.392-55.296 30.336 0 55.04 24.96 54.688 56-0.352 30.688-25.056 55.296-55.392 55.296z m219.12 0c-30.352-0.352-54.704-25.328-54.704-56 0.352-30.688 25.056-55.296 55.408-55.296 30.336 0 54.688 24.96 54.688 56-0.352 30.688-25.056 55.296-55.392 55.296z"  horiz-adv-x="1184" />

    
    <glyph glyph-name="shouye2x" unicode="&#58927;" d="M910.222222 484.181333C910.222222 617.377185 815.179852 725.333333 697.950815 725.333333c-80.080593 0-149.807407-50.384593-185.950815-124.776296C475.856593 674.967704 406.129778 725.333333 326.049185 725.333333 208.820148 725.333333 113.777778 617.377185 113.777778 484.181333c0-91.477333 40.12563-156.520296 110.91437-210.05274C426.021926 125.914074 512 23.703704 512 23.703704s90.642963 127.108741 287.307852 250.424889C868.939852 321.536 910.222222 392.722963 910.222222 484.181333z"  horiz-adv-x="1024" />

    
    <glyph glyph-name="xingzhuangjiehe2x" unicode="&#58928;" d="M94.814815 384c0-230.4 186.785185-417.185185 417.185185-417.185185s417.185185 186.785185 417.185185 417.185185S742.4 801.185185 512 801.185185 94.814815 614.4 94.814815 384z m608.805926 162.417778c29.487407-29.468444 1.668741-139.055407-106.514963-247.239111-108.183704-108.202667-218.055111-136.286815-247.523556-106.799408-25.315556 25.581037-69.82163 55.61837-11.965629 103.177482 57.837037 47.559111 74.258963 23.646815 100.408888-2.787556 18.356148-18.356148 65.080889 20.024889 105.130667 60.074667 40.049778 40.049778 78.430815 86.774519 60.074667 105.130667-27.818667 26.43437-49.227852 42.552889-2.503111 100.408888 46.724741 57.837037 77.596444 13.63437 102.893037-11.946666z"  horiz-adv-x="1024" />

    
    <glyph glyph-name="saoyisao2x" unicode="&#58929;" d="M717.312 19.911111a62.957037 62.957037 0 0 0-26.282667 6.84563l-179.541333 89.789629-180.868741-89.656889a55.277037 55.277037 0 0 0-57.969778 4.077038 57.173333 57.173333 0 0 0-22.091851 55.220148l37.205333 193.34637-142.222222 132.626963a60.833185 60.833185 0 0 0-15.378963 57.969778 54.916741 54.916741 0 0 0 45.605926 38.646518l197.556148 36.010667 88.462222 179.560296a56.452741 56.452741 0 0 0 49.815704 31.800889c21.428148 0 40.77037-12.363852 49.834666-31.800889l88.329482-179.560296 197.404444-34.569482a53.304889 53.304889 0 0 0 44.183704-38.646518 56.395852 56.395852 0 0 0-13.805037-57.969778l-142.222222-134.068148 35.877926-193.34637a55.921778 55.921778 0 0 0-22.072889-55.220148 49.834667 49.834667 0 0 0-31.819852-11.036445z"  horiz-adv-x="1024" />

    
    <glyph glyph-name="422x" unicode="&#58922;" d="M914.285714 474.331429C914.285714 606.208 818.285714 713.142857 699.830857 713.142857 618.934857 713.142857 548.571429 663.259429 512 589.568 475.465143 663.259429 405.065143 713.142857 324.169143 713.142857 205.714286 713.142857 109.714286 606.208 109.714286 474.331429c0-90.587429 40.521143-155.026286 112.054857-208.018286C425.142857 119.478857 512 18.285714 512 18.285714s91.574857 125.878857 290.230857 248.027429C872.594286 313.270857 914.285714 383.707429 914.285714 474.331429z"  horiz-adv-x="1024" />

    
    <glyph glyph-name="232x" unicode="&#58923;" d="M581.485714 859.428571s143.433143-16.384 58.514286-336.896h219.428571c3.913143 0.256 54.857143 2.413714 54.857143-53.833142 0 0 0-84.224-81.481143-367.36 0 0-25.234286-83.053714-56.246857-83.053715h-329.362285C424.228571 18.285714 365.714286 34.084571 365.714286 77.970286V522.496s162.962286 122.88 162.962285 279.625143C533.211429 810.313143 520.630857 859.428571 581.449143 859.428571z m-320.365714-329.142857c3.328-0.073143 31.451429-1.609143 31.451429-34.523428v-458.313143s0.182857-19.163429-22.308572-19.163429H162.121143s-26.624 0-26.624 29.001143L109.714286 502.637714S110.08 530.285714 135.899429 530.285714z"  horiz-adv-x="1024" />

    
    <glyph glyph-name="11112x" unicode="&#58924;" d="M718.801455-50.501818V51.665455c264.936727 32.892121 254.246788 319.410424 234.04606 450.947878C895.844848 796.19103 709.290667 888.940606 693.853091 896c0 0-203.170909-99.80897-261.383758-393.386667-19.006061-128-29.711515-402.788848 212.666182-448.589575v-105.689213H327.912727v72.797091c65.349818 12.924121 106.930424 49.338182 130.699637 93.944243-96.240485 98.645333-86.729697 271.266909-73.66594 364.047515 5.942303 28.175515 11.884606 54.008242 20.200728 78.661818-52.286061 72.828121-109.304242 101.003636-116.441213 104.525576 0 0-155.632485-76.334545-198.407757-299.442424-14.273939-98.645333-22.574545-307.665455 165.143273-341.736728v-71.633454H0V-128h1055.030303v77.498182H718.801455z"  horiz-adv-x="1055" />

    
    <glyph glyph-name="22222x" unicode="&#58925;" d="M1118.75531 894.923034c45.320828 3.230897 89.864828-0.812138 133.56138-12.111448 43.714207-11.29931 82.573241-25.299862 116.577103-41.984 34.003862-16.701793 61.528276-34.462897 82.573241-53.31862C1472.512 768.706207 1483.034483 752.816552 1483.034483 739.892966c0-12.905931-8.103724-20.709517-24.293517-23.410759-16.189793-2.683586-36.422621-5.12-60.698483-7.273931-24.293517-2.153931-51.023448-6.17931-80.154483-12.111448-29.131034-5.914483-56.673103-19.102897-82.573241-39.547587-17.266759-12.941241-33.721379-27.188966-49.381518-42.813793-15.642483-15.607172-31.284966-30.68469-46.945103-45.214896a567.278345 567.278345 0 0 0-48.569379-40.37738 193.076966 193.076966 0 0 0-54.23669-28.248275c-9.710345-3.248552-21.592276-6.479448-35.628138-9.710345a135.397517 135.397517 0 0 0-44.50869-2.418759c-15.660138 1.624276-31.849931 6.726621-48.569379 15.36-16.737103 8.598069-32.662069 23.128276-47.774896 43.590621-9.710345-12.923586-18.078897-28.248276-25.088-46.027035a510.905379 510.905379 0 0 1-18.626207-57.326345 738.374621 738.374621 0 0 1-13.771035-63.805793 1075.959172 1075.959172 0 0 1-8.898207-62.163862c-2.153931-16.154483-3.760552-36.352-4.855172-60.557241a1067.855448 1067.855448 0 0 1-0.794483-71.874207c0.529655-23.693241 1.889103-45.497379 4.043035-65.412414 2.153931-19.915034 5.384828-34.180414 9.710344-42.796138 5.402483-9.710345 8.103724-17.761103 8.103725-24.222896 0-5.384828-2.701241-10.504828-8.103725-15.36-5.402483-4.837517-15.642483-7.256276-30.75531-7.256276-17.284414 0-28.883862 2.418759-34.816 7.273931-5.932138 4.837517-8.898207 9.957517-8.898207 15.342345-1.076966 6.461793 1.05931 13.982897 6.461793 22.59862 5.402483 10.769655 8.915862 23.428414 10.540138 37.958621 1.606621 14.530207 2.153931 30.137379 1.606621 46.839173a1684.162207 1684.162207 0 0 1-2.418759 50.864551A801.103448 801.103448 0 0 0 741.517241 261.843862c-17.266759 34.445241-34.003862 63.52331-50.193655 87.216552a641.853793 641.853793 0 0 1-53.424552 67.813517c-11.864276-25.829517-25.63531-45.197241-41.277793-58.138483-15.660138-12.905931-31.585103-21.804138-47.774896-26.641655-16.189793-4.837517-31.567448-6.991448-46.132966-6.461793a242.582069 242.582069 0 0 0-38.046896 4.043034 179.729655 179.729655 0 0 0-55.048828 18.573242 652.535172 652.535172 0 0 0-51.817931 30.68469 1333.195034 1333.195034 0 0 0-52.612414 36.334344 451.407448 451.407448 0 0 1-54.236689 33.915587c-28.071724 16.154483-56.937931 24.770207-86.616276 25.847172-29.678345 1.05931-56.673103 0.264828-80.948966-2.436414-24.293517-2.683586-44.261517-3.760552-59.904-3.230896C7.821241 469.892414 0 477.184 0 491.166897c0 14.000552 8.898207 31.77931 26.712276 53.300965 17.814069 21.53931 41.560276 42.796138 71.238621 63.788138 29.678345 21.009655 64.494345 39.847724 104.430344 56.531862a434.846897 434.846897 0 0 0 126.287449 31.496828c67.990069 6.461793 124.398345 2.948414 169.189517-10.504828s79.872-32.573793 105.224827-57.326345c25.370483-24.770207 41.295448-53.300966 47.774897-85.592276 6.461793-32.308966 5.384828-64.617931-3.248552-96.909241 34.551172-31.214345 68.537379-71.062069 102.011587-119.525517 5.384828 52.788966 18.891034 106.072276 40.465655 159.902896 8.651034 18.308414 16.737103 33.897931 24.293517 46.839173a548.722759 548.722759 0 0 0 27.524414 41.984 210.46731 210.46731 0 0 0-26.729931 100.122482c-0.529655 35.539862 9.710345 68.908138 30.772965 100.140138 21.044966 31.214345 53.689379 57.873655 97.950897 79.942621C988.142345 877.426759 1046.422069 890.615172 1118.75531 894.923034zM635.586207 448.776828c-61.298759 52.347586-125.881379 86.157241-193.730207 101.428965-67.866483 15.271724-137.904552 13.629793-210.149517-4.908138-2.189241 0-2.736552-0.264828-1.641931-0.812138a11.475862 11.475862 0 0 1 4.925793-0.829793 812.279172 812.279172 0 0 0 96.856276 4.096c32.838621-0.529655 65.959724-5.455448 99.345655-14.724414 33.368276-9.268966 66.489379-22.916414 99.328-40.907034 32.838621-18.008276 65.112276-42.266483 96.856276-72.809931L635.586207 448.759172z m594.97931 302.08a11.158069 11.158069 0 0 1 4.890483 0.829793c1.076966 0.564966 0 0.829793-3.266207 0.829793-79.342345 7.768276-151.07531-4.713931-215.198896-37.428966-64.123586-32.715034-120.637793-80.684138-169.542621-143.90731L863.744 542.896552c29.360552 41.030621 59.497931 74.857931 90.482759 101.481931s62.49931 47.704276 94.561103 63.223172c32.061793 15.536552 63.311448 26.341517 93.748966 32.450207a559.845517 559.845517 0 0 0 88.028689 10.804966zM393.304276-69.59669c-8.562759 7.168-5.879172 15.624828 8.050758 25.352828 13.912276 9.728 34.26869 19.720828 61.051587 29.960828a1707.219862 1707.219862 0 0 0 90.800551 31.514482c33.75669 10.769655 66.153931 20.232828 97.227035 28.424828 13.929931 4.096 24.893793 3.848828 32.944552-0.759173 8.033103-4.625655 15.536552-10.504828 22.492689-17.672827 6.973793-7.185655 15.536552-14.088828 25.723586-20.762483 10.169379-6.656 24.893793-9.975172 44.190897-9.975172 19.279448 0 34.003862 3.319172 44.190897 9.975172a227.734069 227.734069 0 0 1 26.518069 19.985655c7.503448 6.656 15.006897 12.288 22.492689 16.913655 7.503448 4.590345 18.220138 5.367172 32.132414 2.295173 31.073103-8.192 63.752828-17.92 98.039172-29.201655a1719.490207 1719.490207 0 0 0 92.407173-33.032828c27.312552-10.769655 47.933793-21.009655 61.863724-30.737655 13.929931-9.728 15.536552-17.160828 4.819862-22.280828-25.705931-13.329655-60.257103-24.328828-103.635862-33.050482-43.396414-8.704-90.535724-15.112828-141.417931-19.208828-50.899862-4.096-103.406345-6.144-157.501793-6.144a1614.742069 1614.742069 0 0 0-153.476414 6.920828c-48.198621 4.590345-91.065379 11.264-128.54731 19.968-37.499586 8.721655-64.282483 19.208828-80.366345 31.514482z"  horiz-adv-x="1483" />

    
    <glyph glyph-name="33332x" unicode="&#58926;" d="M1002.966033 677.149377c30.636066-14.621377 26.993311-26.607213-8.091279-26.607213H29.578492c-35.08459 0-38.710557 11.985836-8.074492 26.607213L456.536131 885.021377c30.636066 14.638164 80.744918 14.638164 111.397771 0l435.032131-207.872z m3.693115-709.161967c-9.669246 0-17.559082 6.916197-17.559082 15.36v9.904262c0 8.443803-6.479738 15.36-14.403148 15.36s-14.419934 6.916197-14.419934 15.36v9.904262c0 8.443803-8.057705 15.36-17.911607 15.36h-14.738885c-9.870689 0-17.928393 6.89941-17.928394 15.343214V547.051016c0 8.443803 8.057705 15.36 17.928394 15.36h14.738885c9.853902 0 17.911607 6.916197 17.911607 15.36v9.904263c0 8.443803-8.057705 15.36-17.911607 15.36H742.534295c-9.853902 0-17.94518-6.916197-17.94518-15.36v-9.904263c0-8.443803 8.091279-15.36 17.94518-15.36h14.738885c9.837115 0 17.911607-6.89941 17.911607-15.36v-482.455082c0-8.46059-8.057705-15.36-17.911607-15.36h-14.738885c-9.853902 0-17.94518-6.916197-17.94518-15.36v-9.904262c0-8.443803-6.479738-15.36-14.403148-15.36s-14.403148-6.89941-14.403147-15.343213v-9.921049c0-8.443803-8.057705-15.36-17.928394-15.36h-53.415869V270.87318c0 14.06741-13.429508 25.583213-29.880655 25.583213h-13.832394c-16.434361 0-29.880656-11.515803-29.880656-25.583213v-302.88577H473.709115V270.87318c0 14.06741-13.446295 25.583213-29.880656 25.583213H429.979279c-16.434361 0-29.880656-11.515803-29.880656-25.583213v-302.88577h-53.499803c-9.870689 0-17.928393 6.916197-17.928394 15.36v9.904262c0 8.443803-6.479738 15.36-14.403147 15.36s-14.403148 6.916197-14.403148 15.36v9.904262c0 8.443803-8.074492 15.36-17.928393 15.36h-14.738886c-9.870689 0-17.928393 6.89941-17.928393 15.343214V547.051016c0 8.443803 8.057705 15.36 17.928393 15.36h14.738886c9.853902 0 17.928393 6.916197 17.928393 15.36v9.904263c0 8.443803-8.074492 15.36-17.928393 15.36H82.104656c-9.853902 0-17.928393-6.916197-17.928394-15.36v-9.904263c0-8.443803 8.057705-15.36 17.928394-15.36h14.738885c9.870689 0 17.928393-6.89941 17.928393-15.36v-482.455082c0-8.46059-8.057705-15.36-17.928393-15.36h-14.738885c-9.853902 0-17.928393-6.916197-17.928394-15.36v-9.904262c0-8.443803-6.479738-15.36-14.403147-15.36s-14.403148-6.89941-14.403148-15.343213v-9.921049c0-8.443803-7.889836-15.36-17.575869-15.36-9.652459 0-17.559082-6.89941-17.559082-15.343213v-65.300984c0-8.427016 8.057705-15.343213 17.928394-15.343213H1006.306623c9.853902 0 17.928393 6.916197 17.928393 15.36v65.284197c0 8.443803-7.889836 15.343213-17.575868 15.343213z"  horiz-adv-x="1024" />

    
    <glyph glyph-name="ic_saom" unicode="&#58921;" d="M206.08 482.742857c12.964571 0 23.222857 10.532571 23.222857 23.460572v112.64c0 25.874286 21.942857 47.067429 47.798857 47.067428h112.548572a23.606857 23.606857 0 0 1 0 47.232h-112.548572A94.701714 94.701714 0 0 1 182.857143 618.843429v-112.64c0-12.964571 10.258286-23.460571 23.222857-23.460572zM747.062857 713.142857h-113.792a23.716571 23.716571 0 0 1-22.491428-24.868571c0.64-12.105143 10.349714-21.76 22.491428-22.4h113.792c26.148571 0 46.354286-21.156571 46.354286-47.067429v-112.603428c0-12.964571 10.788571-23.460571 23.881143-23.460572 13.056 0 23.844571 10.532571 23.844571 23.460572v112.64C841.142857 670.592 799.323429 713.142857 747.062857 713.142857z m70.363429-427.885714a23.68 23.68 0 0 1-23.734857-23.588572v-113.243428a45.403429 45.403429 0 0 0-46.08-46.08h-113.133715a23.734857 23.734857 0 0 1 0-47.488h113.133715A93.184 93.184 0 0 1 841.142857 147.675429v114.011428a23.698286 23.698286 0 0 1-23.716571 23.570286zM389.796571 102.345143h-112.64c-25.874286 0-47.817143 20.077714-47.817142 46.08V261.668571A23.332571 23.332571 0 0 1 206.262857 285.257143h-0.182857A23.332571 23.332571 0 0 1 182.857143 261.814857V148.425143C182.857143 96.457143 225.389714 54.857143 277.156571 54.857143h112.64a23.698286 23.698286 0 0 1 23.460572 23.771428 23.698286 23.698286 0 0 1-23.460572 23.716572zM219.428571 420.571429h585.142858a36.571429 36.571429 0 1 0 0-73.142858H219.428571a36.571429 36.571429 0 1 0 0 73.142858z"  horiz-adv-x="1024" />

    
    <glyph glyph-name="ic_workb_search" unicode="&#58920;" d="M661.577143 616.643048c105.081905-105.081905 113.517714-270.189714 25.331809-384.902096 2.486857-1.633524 4.87619-3.559619 7.070477-5.753904l116.370285-116.370286a45.714286 45.714286 0 0 0-64.658285-64.658286l-116.370286 116.370286a45.83619 45.83619 0 0 0-6.826667 8.704c-114.127238-80.091429-272.700952-69.144381-374.686476 32.841143-114.249143 114.273524-114.249143 299.52 0 413.769143s299.495619 114.249143 413.744762 0z m-38.790095-38.790096c-92.842667 92.842667-243.346286 92.842667-336.188953 0s-92.842667-243.346286 0-336.188952c92.842667-92.818286 243.346286-92.818286 336.188953 0 92.818286 92.842667 92.818286 243.346286 0 336.188952z"  horiz-adv-x="1024" />

    
    <glyph glyph-name="juxing" unicode="&#58919;" d="M512 896C229.216 896 0 666.784 0 384s229.216-512 512-512 512 229.216 512 512S794.784 896 512 896z m0-64c247.424 0 448-200.576 448-448s-200.576-448-448-448S64 136.576 64 384 264.576 832 512 832z"  horiz-adv-x="1024" />

    
    <glyph glyph-name="Rectangle-7" unicode="&#58918;" d="M403.382857 713.709714a27.428571 27.428571 0 0 0 1.792-36.827428l-1.773714-1.956572L112.457143 384l290.925714-290.925714a27.428571 27.428571 0 0 0 1.773714-36.827429l-1.773714-1.956571a27.428571 27.428571 0 0 0-36.845714-1.792l-1.956572 1.792-310.308571 310.308571a27.428571 27.428571 0 0 0-1.792 36.845714l1.792 1.956572 310.308571 310.308571a27.428571 27.428571 0 0 0 38.802286 0z"  horiz-adv-x="1024" />

    
    <glyph glyph-name="check" unicode="&#58917;" d="M512 864c265.088 0 480-214.912 480-480 0-265.088-214.912-480-480-480-265.088 0-480 214.912-480 480C32 649.088 246.912 864 512 864z m281.44-300.544a32 32 0 0 1-45.28 0l-308.448-308.48-2.784-2.464a32 32 0 0 0-42.464 2.464l-130.4 130.4-2.816 2.496a32 32 0 0 1-42.464-47.744l130.432-130.4 4.096-3.872a96 96 0 0 1 131.648 3.872l308.48 308.48 2.464 2.784a32 32 0 0 1-2.464 42.464z"  horiz-adv-x="1024" />

    
    <glyph glyph-name="wode" unicode="&#58908;" d="M521.481481 782.222222C641.915259 782.222222 739.555556 684.581926 739.555556 564.148148S641.915259 346.074074 521.481481 346.074074c-160.142222 0-292.522667-124.112593-310.746074-284.444444h621.492149c-10.676148 93.582222-60.491852 177.114074-136.154075 229.641481a37.925926 37.925926 0 0 0 43.235556 62.312296C845.406815 279.931259 910.222222 157.354667 910.222222 23.703704a37.925926 37.925926 0 0 0-37.925926-37.925926H170.666667a37.925926 37.925926 0 0 0-37.925926 37.925926c0 169.756444 103.765333 314.917926 250.083555 372.148148A217.562074 217.562074 0 0 0 303.407407 564.148148C303.407407 684.581926 401.047704 782.222222 521.481481 782.222222z m0-75.851852a142.222222 142.222222 0 1 1 0-284.444444 142.222222 142.222222 0 0 1 0 284.444444z"  horiz-adv-x="1024" />

    
    <glyph glyph-name="shebei" unicode="&#58909;" d="M492.942222 619.273481c0 48.621037-18.925037 94.245926-53.229037 128.663704A180.375704 180.375704 0 0 1 311.068444 801.185185H271.739259C174.155852 801.185185 94.814815 721.825185 94.814815 624.203852v-39.329185c0-48.621037 18.925037-94.245926 53.229037-128.663704A180.375704 180.375704 0 0 1 276.66963 402.962963h181.854814c19.038815 0 34.512593 15.473778 34.512593 34.512593 0 0.891259 0 1.763556-0.094815 2.654814v179.143111zM436.148148 459.851852h-150.300444A115.370667 115.370667 0 0 0 170.666667 575.032889v40.144592A110.250667 110.250667 0 0 0 280.822519 725.333333h40.144592A115.370667 115.370667 0 0 0 436.148148 610.152296V459.851852zM752.203852 801.185185h-39.329185c-48.621037 0-94.245926-18.925037-128.663704-53.248A180.849778 180.849778 0 0 1 530.962963 619.273481v-181.797925c0-19.038815 15.473778-34.512593 34.512593-34.512593h181.797925c48.621037 0 94.245926 18.925037 128.663704 53.248A180.849778 180.849778 0 0 1 929.185185 584.874667v39.329185C929.185185 721.825185 849.825185 801.185185 752.203852 801.185185zM853.333333 575.032889A115.370667 115.370667 0 0 0 738.152296 459.851852H587.851852v150.300444A115.370667 115.370667 0 0 0 703.032889 725.333333h40.144592A110.250667 110.250667 0 0 0 853.333333 615.177481v-40.144592zM458.524444 365.037037h-181.854814c-48.583111 0-94.226963-18.925037-128.625778-53.248A180.470519 180.470519 0 0 1 94.814815 183.125333v-39.329185C94.814815 46.174815 174.155852-33.185185 271.739259-33.185185h39.329185c48.602074 0 94.245926 18.925037 128.644741 53.248a180.470519 180.470519 0 0 1 53.229037 128.663704V327.86963c0.094815 0.891259 0.094815 1.763556 0.094815 2.654814 0 19.038815-15.473778 34.512593-34.512593 34.512593zM436.148148 157.847704A115.370667 115.370667 0 0 0 320.967111 42.666667h-40.144592A110.250667 110.250667 0 0 0 170.666667 152.822519v40.144592A115.370667 115.370667 0 0 0 285.847704 308.148148H436.148148v-150.300444zM747.273481 365.037037H565.475556c-19.038815 0-34.512593-15.473778-34.512593-34.512593v-181.797925c0-48.621037 18.925037-94.245926 53.248-128.663704A180.849778 180.849778 0 0 1 712.874667-33.185185h39.329185C849.825185-33.185185 929.185185 46.174815 929.185185 143.796148v39.329185c0 48.621037-18.925037 94.245926-53.248 128.663704A181.020444 181.020444 0 0 1 747.273481 365.037037zM853.333333 152.822519A110.250667 110.250667 0 0 0 743.177481 42.666667h-40.144592A115.370667 115.370667 0 0 0 587.851852 157.847704V308.148148h150.300444A115.370667 115.370667 0 0 0 853.333333 192.967111v-40.144592z"  horiz-adv-x="1024" />

    
    <glyph glyph-name="ic_more" unicode="&#58910;" d="M502.528 755.498667a42.666667 42.666667 0 0 0 56.618667 3.328l3.712-3.328 362.069333-362.026667a42.666667 42.666667 0 0 0 3.285333-56.618667l-3.285333-3.712-362.069333-362.069333A42.666667 42.666667 0 0 0 499.2 27.733333l3.328 3.754667 331.861333 331.861333-331.861333 331.861334A42.666667 42.666667 0 0 0 499.2 751.786667l3.328 3.712z"  horiz-adv-x="1024" />

    
    <glyph glyph-name="ic_lb" unicode="&#58911;" d="M830.563097 896C901.086968 894.348387 957.935484 837.912774 957.935484 768.842323v-769.651613C957.935484-70.920258 899.418839-128 827.392-128l-494.046968 0.016516V-128h-139.891613C122.896516-126.348387 66.064516-69.912774 66.064516-0.842323v769.651613C66.064516 838.920258 124.581161 896 196.608 896h633.955097z m-3.005936-73.282065H196.508903c-30.835613 0-55.923613-24.196129-55.923613-53.941677v-769.618581c0-12.965161 4.773161-24.889806 12.71742-34.204903a56.699871 56.699871 0 0 1 43.140129-19.670709h631.048258c30.835613 0 55.923613 24.196129 55.923613 53.941677V768.842323c0 12.304516-4.294194 23.667613-11.511742 32.751483l-1.816774 2.147097a56.683355 56.683355 0 0 1-42.529033 18.977032zM445.935484 169.290323a33.032258 33.032258 0 0 0 0-66.064517H231.225806a33.032258 33.032258 0 0 0 0 66.064517h214.709678z m346.83871 0a33.032258 33.032258 0 0 0 0-66.064517H578.064516a33.032258 33.032258 0 0 0 0 66.064517h214.709678zM445.935484 408.774194a33.032258 33.032258 0 0 0 0-66.064517H231.225806a33.032258 33.032258 0 0 0 0 66.064517h214.709678z m346.83871 0a33.032258 33.032258 0 0 0 0-66.064517H578.064516a33.032258 33.032258 0 0 0 0 66.064517h214.709678zM445.935484 648.258065a33.032258 33.032258 0 0 0 0-66.064517H231.225806a33.032258 33.032258 0 0 0 0 66.064517h214.709678z m346.83871 0a33.032258 33.032258 0 0 0 0-66.064517H578.064516a33.032258 33.032258 0 0 0 0 66.064517h214.709678z"  horiz-adv-x="1024" />

    
    <glyph glyph-name="shouye" unicode="&#58912;" d="M725.143704-33.185185H297.016889C237.700741-33.185185 189.62963 9.178074 189.62963 61.402074V343.22963c0 22.528 20.726519 40.77037 46.269629 40.77037 25.581037 0 46.307556-18.24237 46.307556-40.77037v-281.846519c0-7.661037 7.035259-13.842963 15.739259-13.842963h428.126815c8.685037 0 15.739259 6.181926 15.739259 13.842963V343.22963c0 22.509037 20.707556 40.77037 46.26963 40.77037 25.562074 0 46.26963-18.261333 46.288592-40.77037v-281.846519C834.37037 9.159111 786.299259-33.185185 726.983111-33.185185h-1.85837zM597.333333 308.148148a28.444444 28.444444 0 0 0 28.444445-28.444444v-132.740741a28.444444 28.444444 0 0 0-56.888889 0v132.740741a28.444444 28.444444 0 0 0 28.444444 28.444444z m-6.542222 464.933926l325.783704-283.875555c17.389037-15.853037 16.70637-40.978963-1.517037-56.130371a49.227852 49.227852 0 0 0-30.359704-10.960592l-0.227555-0.18963a49.189926 49.189926 0 0 0-31.895704 11.510518L526.791111 717.50163a26.548148 26.548148 0 0 1-33.052444 0L167.727407 433.436444c-20.138667-13.160296-48.696889-9.595259-63.791407 7.945482-12.155259 14.108444-12.155259 33.526519 0 47.634963l326.011259 284.065185c44.999111 37.470815 115.863704 37.470815 160.843852 0z"  horiz-adv-x="1024" />

    
    <glyph glyph-name="ic_ls" unicode="&#58913;" d="M710.686567 410.746269c145.606687 0 263.641791-118.035104 263.641791-263.641791 0-145.606687-118.035104-263.641791-263.641791-263.641791-145.606687 0-263.641791 118.035104-263.641791 263.641791 0 145.606687 118.035104 263.641791 263.641791 263.641791zM742.675104 896c66.56 0 120.832-52.82006 120.832-117.683582v-210.852299c0.458507-18.691821-14.611104-34.204657-33.639164-34.632597-19.02806-0.443224-34.800716 14.366567-35.24394 33.058388V778.270567c0 27.510448-23.231045 49.916179-51.750209 49.916179H158.918687c-28.534448 0-51.750209-22.390448-51.750209-49.916179v-712.184358c0-27.510448 23.215761-49.931463 51.750209-49.931463h126.624477c19.02806 0 34.449194-15.14603 34.449194-33.853134 0-18.691821-15.421134-33.837851-34.449194-33.837851V-51.58209h-129.45194C90.799761-50.053731 38.208955 2.170269 38.208955 66.086209v712.214925C38.208955 843.17994 92.358687 896 159.010388 896h583.664716zM710.686567 341.970149c-107.626985 0-194.865672-87.238687-194.865671-194.865671S603.059582-47.761194 710.686567-47.761194 905.552239 39.477493 905.552239 147.104478 818.313552 341.970149 710.686567 341.970149z m-14.106746-78.374209c18.447284 0.336239 33.730866-11.768358 34.128239-26.990806L730.692776 147.104478h88.49194c15.237731 0.38209 27.846687-14.244299 28.182926-32.706866 0.305672-18.447284-11.768358-33.715582-27.00609-34.112955l-120.923701-0.030567a41.112836 41.112836 0 0 0-4.340538 0l-2.949731 0.030567c-7.106866-0.183403-13.663522 2.903881-18.64597 8.146149-5.242269 4.386388-8.711642 10.209433-9.475821 16.720239l-0.137552 2.063283v128.198687c-0.397373 15.237731 14.244299 27.86197 32.706865 28.182925z m-342.810746 17.117612c18.951642 0.412657 34.678448-14.229015 35.075821-32.676298 0.412657-18.447284-14.641672-33.730866-33.623881-34.128239H195.584c-18.982209-0.397373-34.693731 14.244299-35.091104 32.706866-0.397373 17.637254 13.357851 32.38591 31.178507 33.975403l2.445373 0.137552h159.637015z m158.12394 200.658149c18.982209 0 34.357493-14.97791 34.357492-33.40991 0-18.447284-15.375284-33.40991-34.357492-33.40991H195.584c-18.982209-0.336239-34.647881 14.366567-34.999403 32.798567-0.336239 18.355582 14.611104 33.547463 33.471045 34.021253h317.837373z m187.071045 200.642866c18.997493 0.397373 34.693731-14.229015 35.106388-32.691582 0.412657-18.447284-14.641672-33.715582-33.623881-34.112955H195.584c-18.982209-0.397373-34.693731 14.244299-35.091104 32.691582-0.412657 18.447284 14.641672 33.730866 33.62388 34.112955h504.862567z"  horiz-adv-x="1024" />

    
    <glyph glyph-name="ic_ls1" unicode="&#58914;" d="M815.786667 466.009043l2.522898-1.380173 110.32487-65.26887c14.573449-8.622377 19.886377-27.366029 12.659014-42.636986l-1.127884-2.166724-37.680232-66.663884c23.655884-47.712464 23.151304-105.516522-1.216927-152.917334l-2.522899-4.719304-129.305971-229.509565a49.597217 49.597217 0 0 0-43.111884-25.34771c-7.42029 0-14.84058 1.869913-21.815652 5.357449l-2.968116 1.587942-207.382261 122.583188c-22.617043 13.401043-30.98713 42.666667-19.322435 66.54516l1.335653 2.537739L605.495652 303.519536c26.653681 46.807188 74.707478 77.274899 126.797913 81.92l4.897392 0.371015 37.680231 67.020058c4.407652 7.271884 11.204638 12.837101 19.352116 14.914782a29.399188 29.399188 0 0 0 21.563363-1.736348z m0.029681-71.19026l-30.408348-54.999189c-6.351768-11.071072-17.363478-16.947942-29.399188-16.250435-36.463304 2.671304-70.121739-14.988986-89.548058-46.406492l-2.018319-3.413334-120.653913-216.212405 180.461449-107.935537 120.653913 216.227247a104.596406 104.596406 0 0 1-0.237449 100.09971l-2.107363 3.665623-2.003478 3.116522c-6.218203 9.319884-6.945391 21.607884-2.196406 32.189217l1.187247 2.404174 30.749681 54.999188-54.464928 32.515711zM750.814609 896C815.475014 896 868.173913 844.710957 868.173913 781.727536v-204.740637c0.445217-18.150029-14.187594-33.213217-32.664116-33.628754-18.476522-0.430377-33.792 13.950145-34.222377 32.100174V781.683014c0 26.713043-22.557681 48.469333-50.250203 48.469334H183.993507c-27.707362 0-50.250203-21.741449-50.250203-48.469334v-691.541333c0-26.713043 22.542841-48.484174 50.250203-48.484174h122.954203c18.476522 0 33.450667-14.707014 33.450667-32.871884 0-18.150029-14.974145-32.857043-33.450667-32.857043V-24.115942h-125.69971C117.849043-22.631884 66.782609 28.078377 66.782609 90.141681v691.571015C66.782609 844.710957 119.362783 896 184.082551 896h566.746898zM373.196058 298.562783c18.432 0.385855 33.688116-13.83142 34.073971-31.758841 0.400696-17.897739-14.217275-32.738319-32.649275-33.124174H219.596058c-18.432-0.385855-33.688116 13.83142-34.073971 31.758841-0.385855 17.126029 12.970667 31.447188 30.274783 32.990608l2.374492 0.133566h155.009855zM526.736696 493.375072c18.432 0 33.361623-14.543768 33.361623-32.441507 0-17.91258-14.929623-32.441507-33.361623-32.441507H219.596058c-18.432-0.326493-33.643594 13.950145-33.984928 31.847884-0.326493 17.823536 14.187594 32.575072 32.50087 33.03513h308.624696z m134.470492 29.16174l2.315131-1.024 0.356174-0.326493 54.153275-28.850087c7.68742-3.888232 12.926145-10.373565 15.374841-18.150029 2.448696-7.791304 1.038841-15.87942-3.146203-23.017739a32.204058 32.204058 0 0 0-19.916058-14.261797 34.519188 34.519188 0 0 0-22.305391 2.033159l-2.508058 1.202087-54.494609 29.17658c-14.336 8.429449-19.218551 25.614841-11.531131 39.550145 7.984232 13.890783 26.11942 19.856696 41.702029 13.653333z m47.193044 165.665391c18.432 0.385855 33.688116-13.81658 34.073971-31.744 0.400696-17.91258-14.217275-32.738319-32.649275-33.124174H219.596058c-18.432-0.385855-33.688116 13.83142-34.073971 31.744-0.400696 17.91258 14.217275 32.753159 32.649275 33.124174h490.22887z"  horiz-adv-x="1024" />

    
    <glyph glyph-name="ic_tx" unicode="&#58915;" d="M794.306477 896c71.927742 0 130.576516-57.079742 130.576517-127.174194v-227.856516c0.495484-20.199226-15.789419-36.963097-36.352-37.425548-20.562581-0.478968-37.607226 15.525161-38.086194 35.724387V768.776258c0 29.729032-25.104516 53.941677-55.923613 53.941677H163.472929c-30.835613 0-55.923613-24.196129-55.923613-53.941677v-769.618581c0-29.729032 25.088-53.958194 55.923613-53.958193h136.836129c20.562581 0 37.227355-16.367484 37.227355-36.583226 0-20.199226-16.664774-36.56671-37.227355-36.56671V-128h-139.891613C89.860542-126.348387 33.028542-69.912774 33.028542-0.842323v769.651613C33.028542 838.920258 91.545187 896 163.572026 896h630.734451z m-37.128258-457.761032c26.029419 24.988903 67.930839 24.807226 93.745549-0.396387l120.534709-117.512258a63.884387 63.884387 0 0 0 0.198194-91.697549l-10.586839-10.603355C614.891768-128 605.262865-128 586.104155-128H451.38209c-33.990194 0.198194-61.44 27.020387-61.489548 60.069161v131.716129c0.033032 18.597161 3.666581 31.347613 367.269161 374.453678z m-68.013419-165.359484C582.520155 171.074065 488.146994 79.277419 463.868284 51.596387v-107.420903h110.525935c28.325161 23.700645 122.764387 115.365161 227.526194 218.83871l-0.924903 0.990967z m-315.127742-41.785807c20.48 0.445935 37.475097-15.376516 37.904516-35.311483 0.445935-19.934968-15.822452-36.451097-36.335484-36.880517H203.095123c-20.513032-0.429419-37.491613 15.393032-37.921033 35.344517-0.429419 19.059613 14.435097 34.997677 33.692904 36.715354l2.64258 0.148646h172.510968z m429.584516 150.610581c-20.529548-19.406452-41.026065-38.829419-61.506064-58.301935l111.120516-108.197162 0.561548-0.59458 30.092387 29.844645 29.960258 29.943742z m-258.708645 66.229677c20.513032 0 37.128258-16.185806 37.128258-36.104258 0-19.934968-16.615226-36.104258-37.128258-36.104258H203.095123c-20.513032-0.363355-37.442065 15.525161-37.821936 35.443613-0.363355 19.835871 15.789419 36.252903 36.170323 36.764903h343.469419z m202.157419 216.823742c20.529548 0.429419 37.491613-15.376516 37.937549-35.328 0.445935-19.934968-15.822452-36.434581-36.335484-36.864H203.095123c-20.513032-0.429419-37.491613 15.393032-37.921033 35.328-0.445935 19.934968 15.822452 36.451097 36.335484 36.864h545.577291z"  horiz-adv-x="1024" />

    
    <glyph glyph-name="ic_pl" unicode="&#58916;" d="M512.290133 896c35.84 0 67.106133-20.48 83.029334-53.469867l104.0896-220.16c2.833067-5.700267 7.970133-9.6768 13.653333-10.820266l232.618667-35.259734c34.116267-5.12 62.549333-29.576533 73.352533-63.146666 11.383467-34.7136 2.850133-72.260267-22.186667-97.860267l-168.328533-171.793067c-4.539733-4.539733-6.826667-11.946667-5.700267-19.3536l39.816534-242.346666c4.539733-27.869867-2.833067-56.32-21.0432-77.9264C823.3984-116.053333 797.7984-128 771.072-128c-15.36 0-29.576533 3.976533-43.229867 11.383467l-208.162133 114.346666a15.957333 15.957333 0 0 1-15.9232 0l-208.162133-114.346666c-13.653333-7.406933-28.450133-11.383467-43.229867-11.383467-26.7264 0-51.7632 11.946667-69.393067 32.989867-18.210133 21.0432-25.6 49.493333-21.0432 77.943466l39.816534 242.346667c1.1264 6.826667-1.143467 14.216533-5.6832 19.336533l-168.925867 170.666667c-25.019733 25.6-33.553067 63.146667-22.186667 97.860267 11.383467 33.570133 39.253333 57.4464 73.386667 63.146666l232.618667 35.259734c5.666133 1.143467 10.8032 5.12 13.653333 10.8032l104.618667 220.16C444.6208 875.52 476.4672 896 512.3072 896z m0-76.8c-5.205333 0-9.557333-2.423467-12.5952-7.5776l-1.092266-2.065067-105.3184-221.559466a96.836267 96.836267 0 0 0-62.856534-50.756267l-4.369066-0.989867-3.601067-0.631466-231.509333-35.089067a16.469333 16.469333 0 0 1-13.0048-11.3152c-2.218667-6.792533-1.109333-13.550933 2.3552-18.261333l1.416533-1.6384 170.376533-172.1344 1.365334-1.536a100.778667 100.778667 0 0 0 24.712533-78.336l-0.648533-4.488534-39.765334-242.005333c-1.0752-6.741333 0.392533-12.219733 4.096-16.520533 3.191467-3.805867 6.741333-5.495467 10.513067-5.495467 1.194667 0 2.7648 0.341333 4.488533 1.058133l1.757867 0.836267 206.813867 113.578667c27.3408 15.7696 60.740267 16.4864 87.466666 2.816l211.524267-116.1728c3.037867-1.655467 4.778667-2.116267 6.656-2.116267 3.857067 0 8.2432 1.757867 12.014933 5.0688l0.682667 0.699733 0.290133 0.392534c2.218667 3.3792 3.328 7.594667 3.054934 12.117333l-0.256 2.269867-39.936 243.165866c-4.5056 29.2864 3.959467 59.767467 23.688533 81.527467l3.054933 3.208533 168.277334 171.707734c4.898133 5.0176 6.621867 12.629333 3.9936 20.650666a15.4624 15.4624 0 0 1-10.069334 10.359467l-1.706666 0.375467-232.618667 35.2768-3.584 0.631466a96.597333 96.597333 0 0 0-65.1776 47.837867l-2.048 3.908267-104.584533 221.149866c-3.362133 6.980267-8.106667 10.052267-13.858134 10.052267z m45.294934-329.591467c3.7376-16.162133-5.512533-32.085333-20.650667-35.584-64.034133-14.779733-113.8688-64.170667-132.846933-129.194666-4.573867-15.650133-20.360533-24.064-35.2768-18.773334-14.916267 5.290667-23.296 22.289067-18.722134 37.956267 24.746667 84.770133 89.821867 149.248 173.329067 168.533333 15.138133 3.4816 30.446933-6.775467 34.167467-22.9376z"  horiz-adv-x="1024" />

    


  </font>
</defs>
</svg>
